The Agony Scene - Prey

Genre:Melodic Death Metal/Metalcore
Length: 3:50


Format                           : MPEG-PS
File size                        : 211 MiB
Duration                         : 3mn 50s
Overall bit rate                 : 7 674 Kbps

Video
ID                               : 224 (0xE0)
Format                           : MPEG Video
Format version                   : Version 2
Format profile                   : Main@Main
Format settings, BVOP            : Yes
Format settings, Matrix          : Default
Format_Settings_GOP              : M=3, N=13
Duration                         : 3mn 50s
Bit rate mode                    : Variable
Bit rate                         : 5 833 Kbps
Nominal bit rate                 : 8 000 Kbps
Width                            : 720 pixels
Height                           : 576 pixels
Display aspect ratio             : 4:3
Frame rate                       : 25.000 fps
Standard                         : PAL
Resolution                       : 8 bits
Colorimetry                      : 4:2:0
Scan type                        : Interlaced
Scan order                       : Top Field First
Bits/(Pixel*Frame)               : 0.563
Stream size                      : 160 MiB (76%)

Audio
ID                               : 160 (0xA0)
Format                           : PCM
Format settings, Endianness      : Big
Format settings, Sign            : Signed
Muxing mode                      : DVD-Video
Duration                         : 3mn 50s
Bit rate mode                    : Constant
Bit rate                         : 1 536 Kbps
Channel(s)                       : 2 channels
Channel positions                : Front: L R
Sampling rate                    : 48.0 KHz
Resolution                       : 16 bits
Video delay                      : -268ms
Stream size                      : 42.2 MiB (20%)